Coordinates
version=1
nRows=29
nColumns=24
inDegrees=yes

Units are S.I. units (second, meters, Newtons, ...)
Angles are in degrees.

endheader
time	pelvis_tilt	pelvis_list	pelvis_rotation	pelvis_tx	pelvis_ty	pelvis_tz	hip_flexion_r	hip_adduction_r	hip_rotation_r	knee_angle_r	ankle_angle_r	subtalar_angle_r	mtp_angle_r	hip_flexion_l	hip_adduction_l	hip_rotation_l	knee_angle_l	ankle_angle_l	subtalar_angle_l	mtp_angle_l	lumbar_extension	lumbar_bending	lumbar_rotation
      3.46000000	      8.61173355	     -0.14343186	      2.01409206	      0.17305094	      1.02940414	      0.03836041	     -3.94623096	      4.04150096	     -7.59116434	     -6.92101233	      7.07943884	      0.00000000	      0.00000000	     -0.57011411	     -3.67994161	     -5.90924136	    -58.03882323	     -4.20970096	      0.00000000	      0.00000000	    -20.19630108	     -0.53051172	     -0.22306600
      3.47000000	      8.83317200	      0.10995173	      1.92685120	      0.17290545	      1.03008322	      0.03947460	     -4.81939482	      3.85933614	     -7.74528335	     -6.64736127	      7.29128103	      0.00000000	      0.00000000	      0.26497448	     -3.71276306	     -6.17511038	    -59.66346591	     -3.98781071	      0.00000000	      0.00000000	    -20.38105174	     -0.84397570	      0.25068793
      3.48000000	      8.90901935	     -0.09084934	      2.13975724	      0.17320373	      1.03037935	      0.04051705	     -5.97435906	      4.27059179	     -7.63526339	     -5.49942937	      7.32160038	      0.00000000	      0.00000000	      1.32096722	     -4.32063435	     -6.25638193	    -61.35956453	     -2.72414132	      0.00000000	      0.00000000	    -20.30481316	     -0.61396522	      0.53454110
      3.49000000	      9.03282748	      0.14401781	      2.12021811	      0.17309142	      1.03101921	      0.04142091	     -6.86468039	      4.12135999	     -7.59802068	     -5.01485206	      7.58402855	      0.00000000	      0.00000000	      2.18755391	     -4.30272809	     -6.38280664	    -62.54794090	     -2.04232067	      0.00000000	      0.00000000	    -20.36122664	     -0.89153174	      0.90105324
      3.50000000	      9.14681138	      0.31903806	      2.11268808	      0.17283452	      1.03167283	      0.04217491	     -7.73365117	      4.02878814	     -7.48510310	     -4.53446444	      7.68935648	      0.00000000	      0.00000000	      3.05355843	     -4.28447239	     -6.41206472	    -63.56240361	     -1.16733866	      0.00000000	      0.00000000	    -20.42144783	     -1.08408298	      1.24077641
      3.51000000	      9.22397687	      0.55487262	      2.09384976	      0.17246639	      1.03236424	      0.04287300	     -8.53077850	      3.85801045	     -7.37755929	     -4.12067721	      7.86800036	      0.00000000	      0.00000000	      3.92769705	     -4.17326429	     -6.44590526	    -64.31495556	     -0.50009224	      0.00000000	      0.00000000	    -20.45957001	     -1.34722623	      1.54301498
      3.52000000	      9.27227642	      0.79305051	      2.08146885	      0.17197696	      1.03307646	      0.04342573	     -9.29712359	      3.67911330	     -7.21016395	     -3.68893244	      7.97901068	      0.00000000	      0.00000000	      4.80062992	     -3.97900669	     -6.39724402	    -64.84177530	      0.20613207	      0.00000000	      0.00000000	    -20.48183317	     -1.59956162	      1.81201044
      3.53000000	      9.29427730	      1.05520180	      2.06713586	      0.17136501	      1.03379062	      0.04394466	    -10.00563455	      3.46678891	     -7.05686646	     -3.30201472	      8.09757153	      0.00000000	      0.00000000	      5.67818138	     -3.73137594	     -6.33520349	    -65.14077690	      0.73867577	      0.00000000	      0.00000000	    -20.49585778	     -1.87891663	      2.03845418
      3.54000000	      9.28398587	      1.34171181	      2.05463215	      0.17062026	      1.03448528	      0.04434103	    -10.66763932	      3.22057536	     -6.90360925	     -2.91280047	      8.17794005	      0.00000000	      0.00000000	      6.55695430	     -3.39662228	     -6.21845948	    -65.21329774	      1.20303113	      0.00000000	      0.00000000	    -20.49995671	     -2.17733868	      2.24007787
      3.55000000	      9.29255769	      1.57209217	      2.02369201	      0.16960502	      1.03517627	      0.04473385	    -11.24386198	      3.02625995	     -6.82192053	     -2.68909430	      8.26291569	      0.00000000	      0.00000000	      7.42504419	     -3.11338928	     -6.11305761	    -65.13448891	      1.46283799	      0.00000000	      0.00000000	    -20.56743268	     -2.41381075	      2.45594373
      3.56000000	      9.16920315	      1.97003781	      2.04617534	      0.16879740	      1.03570618	      0.04489564	    -11.82634014	      2.65439530	     -6.68805634	     -2.19616244	      8.31972997	      0.00000000	      0.00000000	      8.31008737	     -2.54601765	     -5.90407214	    -64.71225209	      1.88287392	      0.00000000	      0.00000000	    -20.46506813	     -2.81984817	      2.53617731
      3.57000000	      9.08783499	      2.29817133	      2.05821353	      0.16769629	      1.03624892	      0.04500322	    -12.34020061	      2.34797401	     -6.66346718	     -1.87520139	      8.36917582	      0.00000000	      0.00000000	      9.14847071	     -2.05090312	     -5.71151408	    -64.13446682	      2.16541493	      0.00000000	      0.00000000	    -20.45783233	     -3.13847796	      2.63299155
      3.58000000	      8.96926946	      2.61942757	      2.08201316	      0.16654014	      1.03667040	      0.04507825	    -12.80193472	      2.05080621	     -6.65943790	     -1.56642672	      8.45165074	      0.00000000	      0.00000000	      9.97440832	     -1.53807068	     -5.48807156	    -63.34936304	      2.47104108	      0.00000000	      0.00000000	    -20.42290135	     -3.45312293	      2.71392415
      3.59000000	      8.82515148	      2.90552059	      2.11748072	      0.16530966	      1.03697338	      0.04507771	    -13.20886202	      1.78565682	     -6.67260161	     -1.29679780	      8.55505416	      0.00000000	      0.00000000	     10.78146728	     -1.04714026	     -5.24848234	    -62.36802223	      2.81320816	      0.00000000	      0.00000000	    -20.37144312	     -3.72533628	      2.79314457
      3.60000000	      8.67426193	      3.10401337	      2.15737902	      0.16398441	      1.03717869	      0.04505393	    -13.56243305	      1.60840979	     -6.68276879	     -1.09581331	      8.67003780	      0.00000000	      0.00000000	     11.55280528	     -0.65833689	     -5.00673068	    -61.21627629	      3.15785141	      0.00000000	      0.00000000	    -20.32573898	     -3.90287737	      2.90134982
      3.61000000	      8.48497550	      3.40862285	      2.21763607	      0.16272101	      1.03727456	      0.04489611	    -13.87926071	      1.31705472	     -6.82818182	     -0.90366691	      8.78625275	      0.00000000	      0.00000000	     12.25307099	     -0.10803832	     -4.73274939	    -59.77764677	      3.61994723	      0.00000000	      0.00000000	    -20.24377930	     -4.19092320	      2.93905887
      3.62000000	      8.36473284	      3.35988770	      2.27422892	      0.16125622	      1.03731214	      0.04494804	    -14.16502476	      1.40954760	     -6.82971289	     -0.86824203	      8.89158447	      0.00000000	      0.00000000	     12.90148924	     -0.04817273	     -4.54996218	    -58.26916917	      3.81603235	      0.00000000	      0.00000000	    -20.25118995	     -4.11021183	      3.08996645
      3.63000000	      8.08744252	      3.69255324	      2.33845285	      0.16007761	      1.03710119	      0.04465126	    -14.40650678	      1.06748924	     -6.94824871	     -0.65214979	      9.07233403	      0.00000000	      0.00000000	     13.52567010	      0.56099037	     -4.23352176	    -56.40492216	      4.47478379	      0.00000000	      0.00000000	    -20.06436875	     -4.43870264	      3.12911425
      3.64000000	      7.90167502	      3.78288302	      2.39440779	      0.15875879	      1.03690773	      0.04446876	    -14.64881147	      0.99018992	     -7.04039450	     -0.59622860	      9.23717144	      0.00000000	      0.00000000	     14.03226965	      0.82362773	     -4.00661441	    -54.40805877	      4.82493391	      0.00000000	      0.00000000	    -19.99229603	     -4.50626546	      3.24009409
      3.65000000	      7.71723480	      3.63413798	      2.50158964	      0.15739485	      1.03655077	      0.04443134	    -14.86348008	      1.18808567	     -7.04637035	     -0.58314788	      9.35386894	      0.00000000	      0.00000000	     14.54217617	      0.74985627	     -3.82975353	    -52.35650209	      5.00681463	      0.00000000	      0.00000000	    -19.91615407	     -4.32998148	      3.38346174
      3.66000000	      7.48820031	      3.49813905	      2.58903633	      0.15606044	      1.03604868	      0.04430281	    -15.03428605	      1.35654409	     -7.05612332	     -0.55503782	      9.47628024	      0.00000000	      0.00000000	     15.01011494	      0.70981691	     -3.63916677	    -50.09722580	      5.23249898	      0.00000000	      0.00000000	    -19.78890888	     -4.17503929	      3.52098974
      3.67000000	      7.23307552	      3.73873424	      2.54940537	      0.15487980	      1.03556975	      0.04405410	    -15.15936628	      1.06746992	     -7.15360453	     -0.61618675	      9.69614608	      0.00000000	      0.00000000	     15.26636904	      1.12012297	     -3.49840991	    -47.40427764	      5.50362043	      0.00000000	      0.00000000	    -19.63722840	     -4.45521707	      3.65784510
      3.68000000	      6.99277880	      3.52692819	      2.63947561	      0.15357257	      1.03486719	      0.04386346	    -15.29727577	      1.31444645	     -7.15733885	     -0.63033914	      9.81569156	      0.00000000	      0.00000000	     15.62303908	      0.97595283	     -3.31385035	    -44.86938945	      5.62887159	      0.00000000	      0.00000000	    -19.49265028	     -4.22207761	      3.81568080
      3.69000000	      6.73757365	      3.58382168	      2.63983619	      0.15231075	      1.03420054	      0.04362922	    -15.37793540	      1.23160571	     -7.18424156	     -0.75064174	      9.98643927	      0.00000000	      0.00000000	     15.78858179	      1.12277901	     -3.25902118	    -41.93534316	      5.67042485	      0.00000000	      0.00000000	    -19.35189616	     -4.31215510	      3.93046790
      3.70000000	      6.45245582	      3.28621083	      2.78552416	      0.15102679	      1.03321816	      0.04328890	    -15.48249976	      1.58359393	     -7.21075771	     -0.72889592	     10.14321351	      0.00000000	      0.00000000	     16.09966407	      0.87808295	     -3.14252272	    -39.19567349	      5.84255144	      0.00000000	      0.00000000	    -19.16010019	     -3.98352930	      4.02202672
      3.71000000	      6.17425797	      3.46051233	      2.73780646	      0.14979728	      1.03244843	      0.04279876	    -15.50232020	      1.34338574	     -7.27102693	     -0.94370489	     10.34692231	      0.00000000	      0.00000000	     16.05587452	      1.20018737	     -2.99437999	    -35.83595558	      5.82778851	      0.00000000	      0.00000000	    -19.00578578	     -4.20158202	      4.14470055
      3.72000000	      5.84544511	      3.16550850	      2.88370174	      0.14849057	      1.03125092	      0.04230661	    -15.55788956	      1.68848245	     -7.30628395	     -0.91229653	     10.53043465	      0.00000000	      0.00000000	     16.27643980	      0.98706815	     -2.84277959	    -32.86841643	      6.11048852	      0.00000000	      0.00000000	    -18.78146109	     -3.87762877	      4.17075050
      3.73000000	      5.73725918	      3.52020179	      2.82813803	      0.14743277	      1.03068465	      0.04155075	    -15.77838400	      1.26000443	     -7.47712210	     -1.14278739	     10.89417230	      0.00000000	      0.00000000	     15.73850270	      1.53181194	     -2.60126846	    -28.99178619	      5.99291246	      0.00000000	      0.00000000	    -18.83164984	     -4.27879433	      4.18790277
      3.74000000	      5.45696774	      3.58765587	      2.88380416	      0.14639402	      1.02957217	      0.04063383	    -15.88168900	      1.16340974	     -7.61586428	     -1.19982108	     11.12047398	      0.00000000	      0.00000000	     15.48661715	      1.78653908	     -2.25145333	    -25.36878670	      6.14417801	      0.00000000	      0.00000000	    -18.66512955	     -4.34945567	      4.19088454
